<?xml version="1.0" encoding="iso-8859-1"?>
<!-- Uploaded to: SVG Repo, www.svgrepo.com, Generator: SVG Repo Mixer Tools -->
<svg fill="#000000" height="800px" width="800px" version="1.1" id="Layer_1" xmlns="http://www.w3.org/2000/svg" xmlns:xlink="http://www.w3.org/1999/xlink" 
	 viewBox="0 0 511.999 511.999" xml:space="preserve">
<g>
	<g>
		<path d="M448.542,317.875L408.45,293.9c2.322-16.055,2.627-32.667,0.485-49.814l40.706-23.096
			c26.512-15.034,35.86-48.862,20.824-75.426c-15.061-26.531-48.898-35.865-75.415-20.812l-33.562,19.032
			c-12.463-12.768-26.816-23.217-42.36-30.861V63.126C319.127,28.318,290.809,0,256.001,0s-63.126,28.319-63.126,63.126v49.797
			c-15.544,7.643-29.899,18.095-42.361,30.861l-33.554-19.028c-26.526-15.059-60.359-5.723-75.433,20.827
			c-15.024,26.545-5.675,60.373,20.834,75.405l40.709,23.098c-2.016,16.131-1.984,32.745,0.485,49.814l-40.091,23.974
			c-26.177,15.65-34.745,49.688-19.094,75.883c15.654,26.173,49.685,34.733,75.867,19.093l32.828-19.624
			c15.493,15.193,33.607,26.801,53.273,34.112l34.144,74.709c6.057,13.256,24.975,13.284,31.046,0l34.143-74.709
			c19.667-7.312,37.783-18.921,53.273-34.112l32.832,19.626c26.189,15.646,60.218,7.063,75.862-19.095
			c0.001-0.001,0.002-0.003,0.003-0.006C483.287,367.564,474.719,333.524,448.542,317.875z M411.895,154.442
			c10.159-5.769,23.115-2.189,28.875,7.955c5.761,10.178,2.186,23.143-7.967,28.901c-0.001,0-0.002,0.001-0.003,0.001L401.071,209.3
			c-4.461-13.391-10.746-26.669-18.184-38.41L411.895,154.442z M354.856,190.452l-37.969,21.921l-43.818-25.298v-53.396
			C307.456,139.169,336.515,160.78,354.856,190.452z M227.008,63.126h0.001c0-15.986,13.006-28.992,28.992-28.992
			c15.985,0,28.992,13.006,28.992,28.992v38.017c-18.466-3.842-38.394-4.077-57.985,0V63.126z M238.935,133.681v53.396
			l-43.818,25.298l-37.969-21.921C175.593,160.612,204.716,139.143,238.935,133.681z M79.2,191.299
			c-10.154-5.759-13.728-18.724-7.978-28.881c5.77-10.164,18.729-13.74,28.893-7.97l29.002,16.446
			c-7.184,11.338-13.583,24.602-18.184,38.41L79.2,191.299z M102.725,383.548c-10.029,5.994-23.067,2.711-29.058-7.306
			c-5.995-10.034-2.716-23.075,7.313-29.071l31.118-18.609c4.613,12.973,11.109,26.181,18.977,38.039L102.725,383.548z
			 M142.832,312.865c-9.562-29.808-9.307-62.287-0.007-91.266l35.224,20.336v50.597L142.832,312.865z M238.934,400.804
			c-33.65-5.365-63.009-26.42-81.784-56.79l37.967-21.92l43.818,25.298V400.804z M256.002,453.893l-8.146-17.824
			c5.825,0.332,11.371,0.28,16.29,0L256.002,453.893z M256.002,317.832l-43.818-25.298v-50.598l43.818-25.298l43.818,25.298v50.597
			L256.002,317.832z M273.07,400.804v-53.412l43.818-25.298l37.967,21.92C335.998,374.511,306.586,395.46,273.07,400.804z
			 M369.171,312.865l-35.217-20.333v-50.597l35.224-20.336C378.269,249.922,378.938,282.419,369.171,312.865z M438.341,376.236
			c-5.996,10.023-19.034,13.303-29.057,7.315l-28.355-16.95c7.32-11.03,14.036-24.147,18.977-38.039l31.121,18.61
			C441.051,353.166,444.331,366.203,438.341,376.236z"/>
	</g>
</g>
</svg>