<?xml version="1.0" encoding="utf-8"?>
<!-- Generator: Adobe Illustrator 28.1.0, SVG Export Plug-In . SVG Version: 6.00 Build 0)  -->
<svg version="1.1" id="Layer_1" xmlns="http://www.w3.org/2000/svg" xmlns:xlink="http://www.w3.org/1999/xlink" x="0px" y="0px"
	 viewBox="0 0 800 800" style="enable-background:new 0 0 800 800;" xml:space="preserve">
<g>
	<g>
		<path d="M663.3,482.5l-55.5-33.2c3.2-22.2,3.6-45.2,0.7-68.9l56.3-32c36.7-20.8,49.6-67.6,28.8-104.4
			c-20.8-36.7-67.7-49.6-104.4-28.8l-46.5,26.3c-17.3-17.7-37.1-32.1-58.6-42.7v-68.9c0-48.2-39.2-87.4-87.4-87.4
			s-87.4,39.2-87.4,87.4v68.9c-21.5,10.6-41.4,25-58.6,42.7l-46.4-26.3c-36.7-20.8-83.5-7.9-104.4,28.8
			c-20.8,36.7-7.9,83.6,28.8,104.4l56.3,32c-2.8,22.3-2.7,45.3,0.7,68.9l-55.5,33.2c-36.2,21.7-48.1,68.8-26.4,105
			c21.7,36.2,68.8,48.1,105,26.4l45.4-27.2c21.4,21,46.5,37.1,73.7,47.2l47.3,103.4c8.4,18.3,34.6,18.4,43,0L465.6,634
			c27.2-10.1,52.3-26.2,73.7-47.2l45.4,27.2c36.2,21.7,83.3,9.8,105-26.4c0,0,0,0,0,0C711.4,551.3,699.6,504.2,663.3,482.5z
			 M612.6,256.3c14.1-8,32-3,40,11c8,14.1,3,32-11,40c0,0,0,0,0,0l-43.9,24.9c-6.2-18.5-14.9-36.9-25.2-53.2L612.6,256.3z
			 M533.7,306.1l-52.6,30.3l-60.6-35v-73.9C468.1,235.1,508.3,265.1,533.7,306.1z M356.7,129.9L356.7,129.9
			c0-22.1,18-40.1,40.1-40.1c22.1,0,40.1,18,40.1,40.1v52.6c-25.6-5.3-53.1-5.6-80.3,0V129.9L356.7,129.9z M373.2,227.5v73.9
			l-60.6,35L260,306.1C285.6,264.8,325.9,235.1,373.2,227.5z M152.1,307.3c-14.1-8-19-25.9-11-40c8-14.1,25.9-19,40-11l40.1,22.8
			c-9.9,15.7-18.8,34.1-25.2,53.2L152.1,307.3z M184.7,573.4c-13.9,8.3-31.9,3.8-40.2-10.1c-8.3-13.9-3.8-31.9,10.1-40.2l43.1-25.8
			c6.4,18,15.4,36.2,26.3,52.7L184.7,573.4z M240.2,475.6c-13.2-41.3-12.9-86.2,0-126.3l48.8,28.1v70L240.2,475.6z M373.2,597.3
			c-46.6-7.4-87.2-36.6-113.2-78.6l52.6-30.3l60.6,35L373.2,597.3L373.2,597.3z M396.9,670.8l-11.3-24.7c8.1,0.5,15.7,0.4,22.5,0
			L396.9,670.8z M396.9,482.4l-60.6-35v-70l60.6-35l60.6,35v70L396.9,482.4z M420.5,597.3v-73.9l60.6-35l52.6,30.3
			C507.6,560.9,466.9,589.9,420.5,597.3z M553.5,475.6l-48.7-28.1v-70l48.8-28.1C566.1,388.4,567,433.4,553.5,475.6z M649.2,563.3
			c-8.3,13.9-26.3,18.4-40.2,10.1l-39.2-23.5c10.1-15.3,19.4-33.4,26.3-52.6l43.1,25.8C653,531.3,657.5,549.4,649.2,563.3z"/>
	</g>
</g>
</svg>
