<?xml version="1.0" encoding="utf-8"?>
<!-- Generator: Adobe Illustrator 27.4.1, SVG Export Plug-In . SVG Version: 6.00 Build 0)  -->
<svg version="1.1" id="Layer_1" xmlns="http://www.w3.org/2000/svg" xmlns:xlink="http://www.w3.org/1999/xlink" x="0px" y="0px"
	 viewBox="0 0 141.73 141.73" style="enable-background:new 0 0 141.73 141.73;" xml:space="preserve">
<style type="text/css">
	.st0{fill:#FFFFFF;stroke:#010101;stroke-width:0.5;}
</style>
<polygon class="st0" points="66.59,130.12 52.52,141.73 72.88,141.73 "/>
<polygon class="st0" points="128.5,140.38 101.09,136.86 95.19,141.73 127.77,141.73 "/>
<polygon class="st0" points="141.61,136.92 128.5,140.38 127.77,141.73 141.61,141.73 "/>
<polygon class="st0" points="3.63,116.27 0.12,118.07 0.12,141.73 19.2,141.73 31.04,119.85 "/>
<polygon class="st0" points="3.63,116.27 16.75,91.93 0.12,89.79 0.12,118.07 "/>
<polygon class="st0" points="95.19,141.73 101.09,136.86 96.64,121.43 75.32,103.84 66.59,130.12 72.88,141.73 "/>
<polygon class="st0" points="101.09,136.86 128.5,140.38 126.74,112.81 105.36,95.21 96.63,121.43 "/>
<polygon class="st0" points="70.87,88.47 43.46,84.89 45.27,112.52 66.59,130.12 75.32,103.84 "/>
<polygon class="st0" points="70.87,88.47 92.24,70.87 105.36,95.21 96.63,121.43 75.32,103.84 "/>
<polygon class="st0" points="140.97,105.48 126.73,112.81 128.49,140.38 141.61,136.92 141.61,105.56 "/>
<polygon class="st0" points="140.97,105.48 141.61,104.29 141.61,79.52 126.74,77.61 105.36,95.21 126.74,112.81 "/>
<polygon class="st0" points="45.27,112.52 43.46,84.89 16.75,91.93 3.63,116.27 31.04,119.85 "/>
<polygon class="st0" points="31.04,119.85 19.2,141.73 52.52,141.73 66.59,130.12 45.27,112.52 "/>
<polygon class="st0" points="141.61,104.29 140.97,105.48 141.61,105.56 "/>
<polygon class="st0" points="16.75,91.93 15,64.36 0.12,52.11 0.12,89.79 "/>
<path class="st0" d="M15,64.36l1.76,27.57l26.71-7.04l13.18-24.34l-27.42-3.52L15,64.36z"/>
<polygon class="st0" points="15,64.36 29.22,57.02 42.4,32.68 15,29.16 0.12,41.4 0.12,52.11 "/>
<polygon class="st0" points="126.74,77.61 105.36,95.21 92.24,70.87 100.97,44.59 122.29,62.19 "/>
<polygon class="st0" points="131.01,35.9 122.29,62.19 126.74,77.61 141.61,79.53 141.61,44.66 "/>
<polygon class="st0" points="96.52,29.16 69.11,25.64 70.87,53.27 92.24,70.87 100.97,44.59 "/>
<polygon class="st0" points="96.52,29.16 117.84,11.56 131.01,35.9 122.29,62.18 100.97,44.59 "/>
<polygon class="st0" points="141.61,27.15 131.01,35.9 141.61,44.65 "/>
<polygon class="st0" points="70.87,53.27 69.11,25.64 42.4,32.68 29.22,57.02 56.63,60.54 "/>
<polygon class="st0" points="70.87,53.27 92.24,70.87 70.87,88.47 43.46,84.89 56.63,60.54 "/>
<polygon class="st0" points="15,29.16 10.54,13.73 0.12,5.13 0.12,41.41 "/>
<path class="st0" d="M42.41,32.68L40.59,5.05L34.48,0H15.1l-4.56,13.73L15,29.16L42.41,32.68z"/>
<polygon class="st0" points="10.54,13.73 15.1,0 0.12,0 0.12,5.13 "/>
<polygon class="st0" points="69.11,25.64 82.29,1.29 72.41,0 50.42,0 40.59,5.05 42.4,32.68 "/>
<polygon class="st0" points="50.42,0 34.48,0 40.59,5.05 "/>
<polygon class="st0" points="121.67,0 117.84,11.56 131.01,35.9 141.61,27.15 141.61,0 "/>
<polygon class="st0" points="121.67,0 103.84,0 117.84,11.56 "/>
<polygon class="st0" points="84.79,0 72.41,0 82.29,1.29 "/>
<path class="st0" d="M117.84,11.56L103.84,0H84.79l-2.5,1.29L69.11,25.64l27.41,3.52L117.84,11.56z"/>
</svg>
